name C:\Users\u0101727\Documents\MyRepositories\upper-imu-dc\Results\main_tracking\Case_40\FLX01_linearAccelerations_bodyFrame.mot
datacolumns 4
datarows 129
range 2.01000000 3.29000000
endheader 
time	radius_imu_x	radius_imu_y	radius_imu_z	
          2.01000000	         -8.46288038	         -2.78821062	          5.64691094	
          2.02000000	         -7.82838600	         -3.04487265	          5.64885210	
          2.03000000	         -7.18744771	         -3.28519291	          5.67419270	
          2.04000000	         -6.56865914	         -3.52069871	          5.71771620	
          2.05000000	         -5.99980143	         -3.75913624	          5.77592111	
          2.06000000	         -5.50175435	         -4.00096027	          5.84764460	
          2.07000000	         -5.08416826	         -4.23847450	          5.93370374	
          2.08000000	         -4.74414659	         -4.45766196	          6.03572812	
          2.09000000	         -4.46789725	         -4.64200489	          6.15467977	
          2.10000000	         -4.23483437	         -4.77772372	          6.28938020	
          2.11000000	         -4.02367305	         -4.85960158	          6.43517758	
          2.12000000	         -3.81944901	         -4.89496579	          6.58345768	
          2.13000000	         -3.61977968	         -4.90285376	          6.72279764	
          2.14000000	         -3.43729993	         -4.90772653	          6.84174802	
          2.15000000	         -3.29451232	         -4.93068611	          6.93222633	
          2.16000000	         -3.21272826	         -4.98298200	          6.99168230	
          2.17000000	         -3.20244244	         -5.06468713	          7.02262809	
          2.18000000	         -3.26020485	         -5.16822231	          7.02999809	
          2.19000000	         -3.37201707	         -5.28457758	          7.01809528	
          2.20000000	         -3.52045416	         -5.40897091	          6.98874677	
          2.21000000	         -3.69088301	         -5.54258227	          6.94135779	
          2.22000000	         -3.87272525	         -5.68926194	          6.87447714	
          2.23000000	         -4.05645496	         -5.84981820	          6.78773432	
          2.24000000	         -4.23090360	         -6.01829107	          6.68290283	
          2.25000000	         -4.38334259	         -6.18240753	          6.56356025	
          2.26000000	         -4.50110567	         -6.32713589	          6.43374476	
          2.27000000	         -4.57334600	         -6.43906943	          6.29648482	
          2.28000000	         -4.59276410	         -6.50996900	          6.15293880	
          2.29000000	         -4.55718247	         -6.53884991	          6.00236393	
          2.30000000	         -4.47058869	         -6.53254111	          5.84270951	
          2.31000000	         -4.34364854	         -6.50468482	          5.67146272	
          2.32000000	         -4.19326270	         -6.47308920	          5.48651030	
          2.33000000	         -4.03974045	         -6.45552951	          5.28709137	
          2.34000000	         -3.90134501	         -6.46502781	          5.07486625	
          2.35000000	         -3.78920069	         -6.50681728	          4.85464233	
          2.36000000	         -3.70595971	         -6.57857411	          4.63422953	
          2.37000000	         -3.64760330	         -6.67298879	          4.42351518	
          2.38000000	         -3.60561317	         -6.78072587	          4.23316646	
          2.39000000	         -3.56902617	         -6.89295988	          4.07315908	
          2.40000000	         -3.52691672	         -7.00311098	          3.95134565	
          2.41000000	         -3.47030016	         -7.10715673	          3.87250950	
          2.42000000	         -3.39254286	         -7.20280636	          3.83817406	
          2.43000000	         -3.28912385	         -7.28876546	          3.84695788	
          2.44000000	         -3.15794822	         -7.36464101	          3.89513880	
          2.45000000	         -3.00053221	         -7.43103369	          3.97726393	
          2.46000000	         -2.82359800	         -7.48942093	          4.08664804	
          2.47000000	         -2.64001641	         -7.54180897	          4.21560253	
          2.48000000	         -2.46771481	         -7.59007502	          4.35554042	
          2.49000000	         -2.32583272	         -7.63511045	          4.49730719	
          2.50000000	         -2.22964812	         -7.67667680	          4.63176199	
          2.51000000	         -2.18718468	         -7.71462925	          4.75031261	
          2.52000000	         -2.19845148	         -7.75027255	          4.84536065	
          2.53000000	         -2.25612142	         -7.78604720	          4.91091045	
          2.54000000	         -2.34698763	         -7.82389665	          4.94334050	
          2.55000000	         -2.45433157	         -7.86444542	          4.94194737	
          2.56000000	         -2.56076126	         -7.90811265	          4.90891664	
          2.57000000	         -2.65058910	         -7.95687219	          4.84874145	
          2.58000000	         -2.71136994	         -8.01450687	          4.76742801	
          2.59000000	         -2.73499341	         -8.08467705	          4.67185745	
          2.60000000	         -2.71863582	         -8.16738265	          4.56944582	
          2.61000000	         -2.66504486	         -8.25618657	          4.46775925	
          2.62000000	         -2.58171658	         -8.33885235	          4.37365349	
          2.63000000	         -2.47919811	         -8.40150939	          4.29205562	
          2.64000000	         -2.36891369	         -8.43393319	          4.22503962	
          2.65000000	         -2.26102192	         -8.43328564	          4.17171509	
          2.66000000	         -2.16292820	         -8.40521605	          4.12882255	
          2.67000000	         -2.07895025	         -8.36273664	          4.09152528	
          2.68000000	         -2.01135097	         -8.32358096	          4.05410917	
          2.69000000	         -1.96203911	         -8.30625348	          4.01077722	
          2.70000000	         -1.93343255	         -8.32503037	          3.95679796	
          2.71000000	         -1.92759302	         -8.38518087	          3.88975994	
          2.72000000	         -1.94424821	         -8.48046501	          3.81022917	
          2.73000000	         -1.97936543	         -8.59452906	          3.72136295	
          2.74000000	         -2.02563164	         -8.70628300	          3.62765365	
          2.75000000	         -2.07460680	         -8.79728712	          3.53334757	
          2.76000000	         -2.11887533	         -8.85760512	          3.44123860	
          2.77000000	         -2.15282925	         -8.88717944	          3.35245266	
          2.78000000	         -2.17212943	         -8.89266428	          3.26717086	
          2.79000000	         -2.17269007	         -8.88285475	          3.18543496	
          2.80000000	         -2.15058323	         -8.86473474	          3.10763238	
          2.81000000	         -2.10312753	         -8.84208512	          3.03443261	
          2.82000000	         -2.03018717	         -8.81730651	          2.96623616	
          2.83000000	         -1.93509278	         -8.79360324	          2.90271312	
          2.84000000	         -1.82394150	         -8.77609969	          2.84267217	
          2.85000000	         -1.70348495	         -8.77071770	          2.78438045	
          2.86000000	         -1.57903410	         -8.78144150	          2.72609206	
          2.87000000	         -1.45376001	         -8.80788617	          2.66639251	
          2.88000000	         -1.32973876	         -8.84487165	          2.60421742	
          2.89000000	         -1.20967363	         -8.88422514	          2.53872594	
          2.90000000	         -1.09770112	         -8.91765846	          2.46928351	
          2.91000000	         -0.99845685	         -8.93935478	          2.39555985	
          2.92000000	         -0.91487817	         -8.94761523	          2.31756932	
          2.93000000	         -0.84617461	         -8.94555405	          2.23562072	
          2.94000000	         -0.78739370	         -8.94086297	          2.15034388	
          2.95000000	         -0.73093319	         -8.94435545	          2.06298110	
          2.96000000	         -0.66899278	         -8.96693904	          1.97598226	
          2.97000000	         -0.59531105	         -9.01530516	          1.89364082	
          2.98000000	         -0.50546036	         -9.08811602	          1.82221987	
          2.99000000	         -0.39706180	         -9.17556999	          1.76911073	
          3.00000000	         -0.27141208	         -9.26363941	          1.74104216	
          3.01000000	         -0.13534073	         -9.34066200	          1.74193317	
          3.02000000	         -0.00076622	         -9.40209974	          1.77139919	
          3.03000000	          0.11860261	         -9.45081644	          1.82465746	
          3.04000000	          0.21141421	         -9.49326235	          1.89377701	
          3.05000000	          0.27141677	         -9.53395773	          1.96977577	
          3.06000000	          0.29823297	         -9.57119871	          2.04485899	
          3.07000000	          0.29683767	         -9.59651407	          2.11387049	
          3.08000000	          0.27641629	         -9.59857014	          2.17435203	
          3.09000000	          0.24878183	         -9.56936892	          2.22556352	
          3.10000000	          0.22588558	         -9.50915328	          2.26728664	
          3.11000000	          0.21636479	         -9.42749168	          2.29905352	
          3.12000000	          0.22266792	         -9.34034927	          2.32002972	
          3.13000000	          0.24049282	         -9.26503795	          2.32950934	
          3.14000000	          0.26079871	         -9.21556095	          2.32771536	
          3.15000000	          0.27347103	         -9.19971525	          2.31648406	
          3.16000000	          0.27135653	         -9.21790645	          2.29940278	
          3.17000000	          0.25259510	         -9.26355407	          2.28114390	
          3.18000000	          0.21974968	         -9.32544307	          2.26617998	
          3.19000000	          0.17704178	         -9.39142537	          2.25763757	
          3.20000000	          0.12854250	         -9.45167342	          2.25691650	
          3.21000000	          0.07819928	         -9.50004111	          2.26394016	
          3.22000000	          0.03018032	         -9.53371073	          2.27760887	
          3.23000000	         -0.01164758	         -9.55208494	          2.29634732	
          3.24000000	         -0.04474449	         -9.55557393	          2.31875219	
          3.25000000	         -0.06843555	         -9.54461229	          2.34418102	
          3.26000000	         -0.08342863	         -9.51929903	          2.37308002	
          3.27000000	         -0.09070040	         -9.48005594	          2.40686187	
          3.28000000	         -0.09061592	         -9.42908066	          2.44723176	
          3.29000000	         -0.08270889	         -9.37139420	          2.49523335	
